<svg width="500" height="190" xmlns="http://www.w3.org/2000/svg">
  <defs>
    <clipPath id="avatar-clip-dark">
      <circle cx="250" cy="48" r="32"/>
    </clipPath>
    <clipPath id="bar-clip">
      <rect x="16" y="124" width="468" height="12" rx="6" />
    </clipPath>
  </defs>
  <rect width="500" height="190" fill="#0d1117" rx="8"/>
  <circle cx="250" cy="48" r="32" fill="#1c533b"/>
  <g clip-path="url(#avatar-clip-dark)">
    <path d="M 221.9,63.1 Q 217.7,46.4 229.4,34.7 Q 241.1,22.9 257.3,31.8 Q 273.5,40.8 267.7,58.2 Q 261.9,75.7 244,77.7 Q 226.1,79.7 221.9,63.1 Z" fill="#ccbe52"/>
  </g>
  <ellipse cx="234.3" cy="47.9" rx="2.5" ry="2.6" fill="#1a1a1a"/>
  <ellipse cx="251.7" cy="47.9" rx="2.5" ry="2.6" fill="#1a1a1a"/>
  <path d="M 235.8,58.9 Q 243,69.1 250.2,58.9 Z" fill="#1a1a1a"/>
  <circle cx="250" cy="48" r="31" fill="none" stroke="#a19836" stroke-width="2"/>
  <text x="250" y="92" fill="#ffffff" font-size="16" font-family="'Segoe UI', Segoe, sans-serif" dominant-baseline="hanging" text-anchor="middle">Commits in last 30 days: <tspan font-weight="600">36</tspan></text>
  <g clip-path="url(#bar-clip)">
    <rect x="16.00" y="124" width="416.21" height="12" fill="#f1e05a" />
    <rect x="434.21" y="124" width="32.02" height="12" fill="#e34c26" />
    <rect x="468.22" y="124" width="15.78" height="12" fill="#563d7c" />
  </g>
  <circle cx="21" cy="159" r="5" fill="#f1e05a" />
  <text x="31" y="152" fill="#ffffff" font-size="14" font-family="'Segoe UI', Segoe, sans-serif" dominant-baseline="hanging"><tspan font-weight="600">Kotlin</tspan><tspan fill="#8b949e"> 89.7%</tspan></text>
  <circle cx="177" cy="159" r="5" fill="#e34c26" />
  <text x="187" y="152" fill="#ffffff" font-size="14" font-family="'Segoe UI', Segoe, sans-serif" dominant-baseline="hanging"><tspan font-weight="600">JavaScript</tspan><tspan fill="#8b949e"> 6.9%</tspan></text>
  <circle cx="333" cy="159" r="5" fill="#563d7c" />
  <text x="343" y="152" fill="#ffffff" font-size="14" font-family="'Segoe UI', Segoe, sans-serif" dominant-baseline="hanging"><tspan font-weight="600">PHP</tspan><tspan fill="#8b949e"> 3.4%</tspan></text>
</svg>