<svg width="500" height="190" xmlns="http://www.w3.org/2000/svg">
  <defs>
    <clipPath id="avatar-clip-dark">
      <circle cx="250" cy="48" r="32"/>
    </clipPath>
    <clipPath id="bar-clip">
      <rect x="16" y="124" width="468" height="12" rx="6" />
    </clipPath>
  </defs>
  <rect width="500" height="190" fill="#0d1117" rx="8"/>
  <circle cx="250" cy="48" r="32" fill="#1d4d37"/>
  <g clip-path="url(#avatar-clip-dark)">
    <rect x="219.9" y="23.4" width="54" height="54" rx="2.5" transform="rotate(53.4 246.9 50.4)" fill="#d57b57"/>
  </g>
  <ellipse cx="238.3" cy="45.4" rx="2.6" ry="2.9" fill="#1a1a1a"/>
  <ellipse cx="255.5" cy="45.4" rx="2.6" ry="2.9" fill="#1a1a1a"/>
  <path d="M 239,56.4 Q 246.9,67.7 254.8,56.4 Z" fill="#1a1a1a"/>
  <circle cx="250" cy="48" r="31" fill="none" stroke="#8ba136" stroke-width="2"/>
  <text x="250" y="92" fill="#ffffff" font-size="16" font-family="'Segoe UI', Segoe, sans-serif" dominant-baseline="hanging" text-anchor="middle">Commits in last 30 days: <tspan font-weight="600">48</tspan></text>
  <g clip-path="url(#bar-clip)">
    <rect x="16.00" y="124" width="453.79" height="12" fill="#f1e05a" />
    <rect x="471.79" y="124" width="7.89" height="12" fill="#e34c26" />
    <rect x="481.68" y="124" width="2.32" height="12" fill="#563d7c" />
  </g>
  <circle cx="21" cy="159" r="5" fill="#f1e05a" />
  <text x="31" y="152" fill="#ffffff" font-size="14" font-family="'Segoe UI', Segoe, sans-serif" dominant-baseline="hanging"><tspan font-weight="600">Kotlin</tspan><tspan fill="#8b949e"> 97.8%</tspan></text>
  <circle cx="177" cy="159" r="5" fill="#e34c26" />
  <text x="187" y="152" fill="#ffffff" font-size="14" font-family="'Segoe UI', Segoe, sans-serif" dominant-baseline="hanging"><tspan font-weight="600">JavaScript</tspan><tspan fill="#8b949e"> 1.7%</tspan></text>
  <circle cx="333" cy="159" r="5" fill="#563d7c" />
  <text x="343" y="152" fill="#ffffff" font-size="14" font-family="'Segoe UI', Segoe, sans-serif" dominant-baseline="hanging"><tspan font-weight="600">HTML</tspan><tspan fill="#8b949e"> 0.5%</tspan></text>
</svg>