<svg width="500" height="190" xmlns="http://www.w3.org/2000/svg">
  <defs>
    <clipPath id="avatar-clip-light">
      <circle cx="250" cy="48" r="32"/>
    </clipPath>
    <clipPath id="bar-clip">
      <rect x="16" y="124" width="468" height="12" rx="6" />
    </clipPath>
  </defs>
  <rect width="500" height="190" fill="#ffffff" rx="8"/>
  <rect x="0.5" y="0.5" width="499" height="189" rx="8" fill="none" stroke="#E5E7EB" stroke-width="1"/>
  <circle cx="250" cy="48" r="32" fill="#8c3a3c"/>
  <g clip-path="url(#avatar-clip-light)">
    <path d="M 234.8,47 Q 237.1,28.8 254,19.3 Q 271,9.8 281.9,27.3 Q 292.9,44.8 282.3,62.8 Q 271.7,80.8 252.1,73 Q 232.6,65.2 234.8,47 Z" fill="#73d67f"/>
  </g>
  <ellipse cx="251.6" cy="40.1" rx="2.5" ry="2.5" fill="#1a1a1a"/>
  <ellipse cx="268" cy="40.1" rx="2.5" ry="2.5" fill="#1a1a1a"/>
  <path d="M 253,51.1 Q 259.8,60.8 266.6,51.1 Z" fill="#1a1a1a"/>
  <circle cx="250" cy="48" r="31" fill="none" stroke="#a18936" stroke-width="2"/>
  <text x="250" y="92" fill="#24292f" font-size="16" font-family="'Segoe UI', Segoe, sans-serif" dominant-baseline="hanging" text-anchor="middle">Commits in last 30 days: <tspan font-weight="600">30</tspan></text>
  <g clip-path="url(#bar-clip)">
    <rect x="16.00" y="124" width="468.00" height="12" fill="#f1e05a" />
  </g>
  <circle cx="21" cy="159" r="5" fill="#f1e05a" />
  <text x="31" y="152" fill="#24292f" font-size="14" font-family="'Segoe UI', Segoe, sans-serif" dominant-baseline="hanging"><tspan font-weight="600">Kotlin</tspan><tspan fill="#6e7681"> 100.0%</tspan></text>
</svg>