<svg width="500" height="234" xmlns="http://www.w3.org/2000/svg">
  <defs>
    <clipPath id="avatar-clip-dark">
      <circle cx="250" cy="48" r="32"/>
    </clipPath>
    <clipPath id="bar-clip">
      <rect x="16" y="124" width="468" height="12" rx="6" />
    </clipPath>
  </defs>
  <rect width="500" height="234" fill="#0d1117" rx="8"/>
  <circle cx="250" cy="48" r="32" fill="#1d4d37"/>
  <g clip-path="url(#avatar-clip-dark)">
    <rect x="219.9" y="23.4" width="54" height="54" rx="2.5" transform="rotate(53.4 246.9 50.4)" fill="#d57b57"/>
  </g>
  <ellipse cx="238.3" cy="45.4" rx="2.6" ry="2.9" fill="#1a1a1a"/>
  <ellipse cx="255.5" cy="45.4" rx="2.6" ry="2.9" fill="#1a1a1a"/>
  <path d="M 239,56.4 Q 246.9,67.7 254.8,56.4 Z" fill="#1a1a1a"/>
  <circle cx="250" cy="48" r="31" fill="none" stroke="#8ba136" stroke-width="2"/>
  <text x="250" y="92" fill="#ffffff" font-size="16" font-family="'Segoe UI', Segoe, sans-serif" dominant-baseline="hanging" text-anchor="middle">Commits in last 30 days: <tspan font-weight="600">48</tspan></text>
  <g clip-path="url(#bar-clip)">
    <rect x="16.00" y="124" width="415.84" height="12" fill="#f1e05a" />
    <rect x="433.84" y="124" width="15.37" height="12" fill="#e34c26" />
    <rect x="451.21" y="124" width="9.94" height="12" fill="#563d7c" />
    <rect x="463.15" y="124" width="6.33" height="12" fill="#b07219" />
    <rect x="471.48" y="124" width="1.81" height="12" fill="#2b7489" />
    <rect x="475.29" y="124" width="1.36" height="12" fill="#f34b7d" />
    <rect x="478.64" y="124" width="0.45" height="12" fill="#701516" />
    <rect x="481.10" y="124" width="0.45" height="12" fill="#3572A5" />
    <rect x="483.55" y="124" width="0.45" height="12" fill="#438eff" />
  </g>
  <circle cx="21" cy="159" r="5" fill="#f1e05a" />
  <text x="31" y="152" fill="#ffffff" font-size="14" font-family="'Segoe UI', Segoe, sans-serif" dominant-baseline="hanging"><tspan font-weight="600">Kotlin</tspan><tspan fill="#8b949e"> 92.0%</tspan></text>
  <circle cx="177" cy="159" r="5" fill="#e34c26" />
  <text x="187" y="152" fill="#ffffff" font-size="14" font-family="'Segoe UI', Segoe, sans-serif" dominant-baseline="hanging"><tspan font-weight="600">HTML</tspan><tspan fill="#8b949e"> 3.4%</tspan></text>
  <circle cx="333" cy="159" r="5" fill="#563d7c" />
  <text x="343" y="152" fill="#ffffff" font-size="14" font-family="'Segoe UI', Segoe, sans-serif" dominant-baseline="hanging"><tspan font-weight="600">JavaScript</tspan><tspan fill="#8b949e"> 2.2%</tspan></text>
  <circle cx="21" cy="181" r="5" fill="#b07219" />
  <text x="31" y="174" fill="#ffffff" font-size="14" font-family="'Segoe UI', Segoe, sans-serif" dominant-baseline="hanging"><tspan font-weight="600">CSS</tspan><tspan fill="#8b949e"> 1.4%</tspan></text>
  <circle cx="177" cy="181" r="5" fill="#2b7489" />
  <text x="187" y="174" fill="#ffffff" font-size="14" font-family="'Segoe UI', Segoe, sans-serif" dominant-baseline="hanging"><tspan font-weight="600">C++</tspan><tspan fill="#8b949e"> 0.4%</tspan></text>
  <circle cx="333" cy="181" r="5" fill="#f34b7d" />
  <text x="343" y="174" fill="#ffffff" font-size="14" font-family="'Segoe UI', Segoe, sans-serif" dominant-baseline="hanging"><tspan font-weight="600">Python</tspan><tspan fill="#8b949e"> 0.3%</tspan></text>
  <circle cx="21" cy="203" r="5" fill="#701516" />
  <text x="31" y="196" fill="#ffffff" font-size="14" font-family="'Segoe UI', Segoe, sans-serif" dominant-baseline="hanging"><tspan font-weight="600">Batchfile</tspan><tspan fill="#8b949e"> 0.1%</tspan></text>
  <circle cx="177" cy="203" r="5" fill="#3572A5" />
  <text x="187" y="196" fill="#ffffff" font-size="14" font-family="'Segoe UI', Segoe, sans-serif" dominant-baseline="hanging"><tspan font-weight="600">PowerShell</tspan><tspan fill="#8b949e"> 0.1%</tspan></text>
  <circle cx="333" cy="203" r="5" fill="#438eff" />
  <text x="343" y="196" fill="#ffffff" font-size="14" font-family="'Segoe UI', Segoe, sans-serif" dominant-baseline="hanging"><tspan font-weight="600">C</tspan><tspan fill="#8b949e"> 0.1%</tspan></text>
</svg>