<svg width="500" height="234" xmlns="http://www.w3.org/2000/svg">
  <defs>
    <clipPath id="avatar-clip-light">
      <circle cx="250" cy="48" r="32"/>
    </clipPath>
    <clipPath id="bar-clip">
      <rect x="16" y="124" width="468" height="12" rx="6" />
    </clipPath>
  </defs>
  <rect width="500" height="234" fill="#ffffff" rx="8"/>
  <rect x="0.5" y="0.5" width="499" height="233" rx="8" fill="none" stroke="#E5E7EB" stroke-width="1"/>
  <circle cx="250" cy="48" r="32" fill="#21396d"/>
  <g clip-path="url(#avatar-clip-light)">
    <path d="M 269.7,67.3 Q 262.3,87.5 243.7,81.5 Q 225.2,75.6 221.4,60.1 Q 217.6,44.6 231.7,32.1 Q 245.8,19.6 261.5,33.4 Q 277.1,47.2 269.7,67.3 Z" fill="#a6e950"/>
  </g>
  <ellipse cx="234.7" cy="50.2" rx="2.6" ry="2.7" fill="#1a1a1a"/>
  <ellipse cx="250.9" cy="50.2" rx="2.6" ry="2.7" fill="#1a1a1a"/>
  <path d="M 235.5,61.2 Q 242.8,71.6 250.1,61.2 Z" fill="#1a1a1a"/>
  <circle cx="250" cy="48" r="31" fill="none" stroke="#a19d36" stroke-width="2"/>
  <text x="250" y="92" fill="#24292f" font-size="16" font-family="'Segoe UI', Segoe, sans-serif" dominant-baseline="hanging" text-anchor="middle">Commits in last 30 days: <tspan font-weight="600">38</tspan></text>
  <g clip-path="url(#bar-clip)">
    <rect x="16.00" y="124" width="359.79" height="12" fill="#f1e05a" />
    <rect x="377.79" y="124" width="33.45" height="12" fill="#e34c26" />
    <rect x="413.24" y="124" width="24.86" height="12" fill="#563d7c" />
    <rect x="440.10" y="124" width="13.11" height="12" fill="#b07219" />
    <rect x="455.21" y="124" width="12.20" height="12" fill="#2b7489" />
    <rect x="469.41" y="124" width="4.97" height="12" fill="#f34b7d" />
    <rect x="476.38" y="124" width="1.81" height="12" fill="#701516" />
    <rect x="480.19" y="124" width="0.90" height="12" fill="#3572A5" />
    <rect x="483.10" y="124" width="0.90" height="12" fill="#438eff" />
  </g>
  <circle cx="21" cy="159" r="5" fill="#f1e05a" />
  <text x="31" y="152" fill="#24292f" font-size="14" font-family="'Segoe UI', Segoe, sans-serif" dominant-baseline="hanging"><tspan font-weight="600">Kotlin</tspan><tspan fill="#6e7681"> 79.6%</tspan></text>
  <circle cx="177" cy="159" r="5" fill="#e34c26" />
  <text x="187" y="152" fill="#24292f" font-size="14" font-family="'Segoe UI', Segoe, sans-serif" dominant-baseline="hanging"><tspan font-weight="600">C#</tspan><tspan fill="#6e7681"> 7.4%</tspan></text>
  <circle cx="333" cy="159" r="5" fill="#563d7c" />
  <text x="343" y="152" fill="#24292f" font-size="14" font-family="'Segoe UI', Segoe, sans-serif" dominant-baseline="hanging"><tspan font-weight="600">JavaScript</tspan><tspan fill="#6e7681"> 5.5%</tspan></text>
  <circle cx="21" cy="181" r="5" fill="#b07219" />
  <text x="31" y="174" fill="#24292f" font-size="14" font-family="'Segoe UI', Segoe, sans-serif" dominant-baseline="hanging"><tspan font-weight="600">ShaderLab</tspan><tspan fill="#6e7681"> 2.9%</tspan></text>
  <circle cx="177" cy="181" r="5" fill="#2b7489" />
  <text x="187" y="174" fill="#24292f" font-size="14" font-family="'Segoe UI', Segoe, sans-serif" dominant-baseline="hanging"><tspan font-weight="600">PHP</tspan><tspan fill="#6e7681"> 2.7%</tspan></text>
  <circle cx="333" cy="181" r="5" fill="#f34b7d" />
  <text x="343" y="174" fill="#24292f" font-size="14" font-family="'Segoe UI', Segoe, sans-serif" dominant-baseline="hanging"><tspan font-weight="600">C++</tspan><tspan fill="#6e7681"> 1.1%</tspan></text>
  <circle cx="21" cy="203" r="5" fill="#701516" />
  <text x="31" y="196" fill="#24292f" font-size="14" font-family="'Segoe UI', Segoe, sans-serif" dominant-baseline="hanging"><tspan font-weight="600">HLSL</tspan><tspan fill="#6e7681"> 0.4%</tspan></text>
  <circle cx="177" cy="203" r="5" fill="#3572A5" />
  <text x="187" y="196" fill="#24292f" font-size="14" font-family="'Segoe UI', Segoe, sans-serif" dominant-baseline="hanging"><tspan font-weight="600">PowerShell</tspan><tspan fill="#6e7681"> 0.2%</tspan></text>
  <circle cx="333" cy="203" r="5" fill="#438eff" />
  <text x="343" y="196" fill="#24292f" font-size="14" font-family="'Segoe UI', Segoe, sans-serif" dominant-baseline="hanging"><tspan font-weight="600">C</tspan><tspan fill="#6e7681"> 0.2%</tspan></text>
</svg>