<svg width="500" height="234" xmlns="http://www.w3.org/2000/svg">
  <defs>
    <clipPath id="avatar-clip-light">
      <circle cx="250" cy="48" r="32"/>
    </clipPath>
    <clipPath id="bar-clip">
      <rect x="16" y="124" width="468" height="12" rx="6" />
    </clipPath>
  </defs>
  <rect width="500" height="234" fill="#ffffff" rx="8"/>
  <rect x="0.5" y="0.5" width="499" height="233" rx="8" fill="none" stroke="#E5E7EB" stroke-width="1"/>
  <circle cx="250" cy="48" r="32" fill="#5f175e"/>
  <g clip-path="url(#avatar-clip-light)">
    <rect x="223.7" y="21.5" width="48.8" height="53.6" rx="14.5" fill="#68dd92"/>
  </g>
  <ellipse cx="240.1" cy="43.3" rx="2.7" ry="3.1" fill="#1a1a1a"/>
  <ellipse cx="256.1" cy="43.3" rx="2.7" ry="3.1" fill="#1a1a1a"/>
  <path d="M 239.6,54.3 Q 248.1,66.5 256.6,54.3 Z" fill="#1a1a1a"/>
  <circle cx="250" cy="48" r="31" fill="none" stroke="#72a136" stroke-width="2"/>
  <text x="250" y="92" fill="#24292f" font-size="16" font-family="'Segoe UI', Segoe, sans-serif" dominant-baseline="hanging" text-anchor="middle">Commits in last 30 days: <tspan font-weight="600">58</tspan></text>
  <g clip-path="url(#bar-clip)">
    <rect x="16.00" y="124" width="419.91" height="12" fill="#f1e05a" />
    <rect x="437.91" y="124" width="12.66" height="12" fill="#e34c26" />
    <rect x="452.56" y="124" width="8.14" height="12" fill="#563d7c" />
    <rect x="462.70" y="124" width="5.42" height="12" fill="#b07219" />
    <rect x="470.12" y="124" width="3.16" height="12" fill="#2b7489" />
    <rect x="475.29" y="124" width="1.81" height="12" fill="#f34b7d" />
    <rect x="479.10" y="124" width="0.45" height="12" fill="#701516" />
    <rect x="481.55" y="124" width="0.45" height="12" fill="#3572A5" />
    <rect x="484.00" y="124" width="0.00" height="12" fill="#438eff" />
  </g>
  <circle cx="21" cy="159" r="5" fill="#f1e05a" />
  <text x="31" y="152" fill="#24292f" font-size="14" font-family="'Segoe UI', Segoe, sans-serif" dominant-baseline="hanging"><tspan font-weight="600">Kotlin</tspan><tspan fill="#6e7681"> 92.9%</tspan></text>
  <circle cx="177" cy="159" r="5" fill="#e34c26" />
  <text x="187" y="152" fill="#24292f" font-size="14" font-family="'Segoe UI', Segoe, sans-serif" dominant-baseline="hanging"><tspan font-weight="600">HTML</tspan><tspan fill="#6e7681"> 2.8%</tspan></text>
  <circle cx="333" cy="159" r="5" fill="#563d7c" />
  <text x="343" y="152" fill="#24292f" font-size="14" font-family="'Segoe UI', Segoe, sans-serif" dominant-baseline="hanging"><tspan font-weight="600">JavaScript</tspan><tspan fill="#6e7681"> 1.8%</tspan></text>
  <circle cx="21" cy="181" r="5" fill="#b07219" />
  <text x="31" y="174" fill="#24292f" font-size="14" font-family="'Segoe UI', Segoe, sans-serif" dominant-baseline="hanging"><tspan font-weight="600">CSS</tspan><tspan fill="#6e7681"> 1.2%</tspan></text>
  <circle cx="177" cy="181" r="5" fill="#2b7489" />
  <text x="187" y="174" fill="#24292f" font-size="14" font-family="'Segoe UI', Segoe, sans-serif" dominant-baseline="hanging"><tspan font-weight="600">Python</tspan><tspan fill="#6e7681"> 0.7%</tspan></text>
  <circle cx="333" cy="181" r="5" fill="#f34b7d" />
  <text x="343" y="174" fill="#24292f" font-size="14" font-family="'Segoe UI', Segoe, sans-serif" dominant-baseline="hanging"><tspan font-weight="600">C++</tspan><tspan fill="#6e7681"> 0.4%</tspan></text>
  <circle cx="21" cy="203" r="5" fill="#701516" />
  <text x="31" y="196" fill="#24292f" font-size="14" font-family="'Segoe UI', Segoe, sans-serif" dominant-baseline="hanging"><tspan font-weight="600">Batchfile</tspan><tspan fill="#6e7681"> 0.1%</tspan></text>
  <circle cx="177" cy="203" r="5" fill="#3572A5" />
  <text x="187" y="196" fill="#24292f" font-size="14" font-family="'Segoe UI', Segoe, sans-serif" dominant-baseline="hanging"><tspan font-weight="600">C</tspan><tspan fill="#6e7681"> 0.1%</tspan></text>
  <circle cx="333" cy="203" r="5" fill="#438eff" />
  <text x="343" y="196" fill="#24292f" font-size="14" font-family="'Segoe UI', Segoe, sans-serif" dominant-baseline="hanging"><tspan font-weight="600">Shell</tspan><tspan fill="#6e7681"> 0.0%</tspan></text>
</svg>